<svg width="37" height="46" viewBox="0 0 37 46" fill="none" xmlns="http://www.w3.org/2000/svg">
<path d="M22.7214 1.83565C22.9019 1.8344 23.0472 1.68708 23.0459 1.50659C23.0447 1.3261 22.8973 1.1808 22.7168 1.18205L22.7214 1.83565ZM13.3091 3.72126L13.4528 4.01482L13.4528 4.01482L13.3091 3.72126ZM32.59 42.9225C32.7521 42.843 32.8191 42.6472 32.7396 42.4852C32.6601 42.3231 32.4643 42.2561 32.3023 42.3356L32.59 42.9225ZM17.5633 2.7574L17.2365 2.75739L17.5633 2.7574ZM15.9148 4.40247L15.9148 4.72928L15.9148 4.40247ZM14.2663 2.75744L13.9395 2.75743L14.2663 2.75744ZM15.9148 1.11237L15.9148 0.785554L15.9148 1.11237ZM17.4629 2.19068L17.1562 2.30347L17.4629 2.19068ZM13.1655 3.4277C10.1912 4.88288 7.58374 6.9883 5.53692 9.5875L6.05044 9.99188C8.03646 7.46988 10.5666 5.4269 13.4528 4.01482L13.1655 3.4277ZM5.53692 9.5875C3.4901 12.1867 2.05659 15.2128 1.34297 18.441L1.98118 18.5821C2.67356 15.45 4.06442 12.5139 6.05044 9.99188L5.53692 9.5875ZM1.34297 18.441C0.629347 21.6692 0.653986 25.0163 1.41505 28.2337L2.05112 28.0832C1.31271 24.9617 1.28881 21.7142 1.98118 18.5821L1.34297 18.441ZM1.41505 28.2337C2.17612 31.451 3.65403 34.4557 5.73889 37.0246L6.24639 36.6127C4.22346 34.1202 2.78953 31.2048 2.05112 28.0832L1.41505 28.2337ZM5.73889 37.0246C7.82375 39.5934 10.4619 41.6602 13.4573 43.0715L13.7359 42.4802C10.8292 41.1108 8.26933 39.1052 6.24639 36.6127L5.73889 37.0246ZM13.4573 43.0715C16.4527 44.4828 19.7283 45.2023 23.0407 45.1765L23.0356 44.5229C19.8212 44.5479 16.6426 43.8497 13.7359 42.4802L13.4573 43.0715ZM23.0407 45.1765C26.353 45.1507 29.617 44.3803 32.59 42.9225L32.3023 42.3356C29.4173 43.7502 26.2499 44.4978 23.0356 44.5229L23.0407 45.1765ZM17.2365 2.75739C17.2365 3.48479 16.6454 4.07565 15.9148 4.07566L15.9148 4.72928C17.0051 4.72927 17.8901 3.84708 17.8901 2.7574L17.2365 2.75739ZM14.5931 2.75744C14.5931 2.03005 15.1842 1.43918 15.9148 1.43918L15.9148 0.785554C14.8245 0.785567 13.9395 1.66775 13.9395 2.75743L14.5931 2.75744ZM22.7168 1.18205C20.9112 1.19453 19.1197 1.4283 17.3817 1.87411L17.5441 2.50724C19.2307 2.07462 20.9691 1.84777 22.7214 1.83565L22.7168 1.18205ZM15.9148 1.43918C16.4847 1.43917 16.9706 1.79892 17.1562 2.30347L17.7696 2.07789C17.4923 1.3238 16.7667 0.785545 15.9148 0.785554L15.9148 1.43918ZM17.1562 2.30347C17.2081 2.44456 17.2365 2.5973 17.2365 2.75739L17.8901 2.7574C17.8902 2.51919 17.8477 2.29015 17.7696 2.07789L17.1562 2.30347ZM14.2131 2.94863C13.8602 3.09899 13.5109 3.2587 13.1655 3.4277L13.4528 4.01482C13.7879 3.85083 14.1269 3.69584 14.4693 3.54994L14.2131 2.94863ZM15.9148 4.07566C15.3225 4.07566 14.821 3.68702 14.6531 3.15151L14.0294 3.34706C14.2805 4.14809 15.0295 4.72929 15.9148 4.72928L15.9148 4.07566ZM14.6531 3.15151C14.6142 3.02747 14.5931 2.89522 14.5931 2.75744L13.9395 2.75743C13.9395 2.96231 13.9709 3.16048 14.0294 3.34706L14.6531 3.15151Z" fill="white"/>
<path d="M23.6676 31.111C25.0351 31.111 26.243 30.854 27.2914 30.3399C28.3398 29.8257 29.2286 29.1189 29.958 28.2192L37.0004 34.517C35.405 36.1878 33.4678 37.4945 31.1887 38.437C28.9552 39.3795 26.4481 39.8508 23.6676 39.8508C21.115 39.8508 18.7675 39.4438 16.6252 38.6298C14.4828 37.8158 12.614 36.6805 11.0186 35.2239C9.46879 33.7244 8.23808 31.9679 7.32643 29.9543C6.46037 27.8979 6.02734 25.6701 6.02734 23.2709C6.02734 20.8717 6.46037 18.6654 7.32643 16.6518C8.23808 14.5954 9.46879 12.8389 11.0186 11.3822C12.614 9.88275 14.4828 8.72601 16.6252 7.91201C18.7675 7.09801 21.115 6.69101 23.6676 6.69101C26.4026 6.69101 28.8868 7.16227 31.1203 8.1048C33.3538 9.00448 35.2683 10.2683 36.8637 11.8963L29.8896 18.2584C29.2059 17.3587 28.317 16.6518 27.223 16.1377C26.1746 15.6236 24.9895 15.3665 23.6676 15.3665C21.3429 15.3665 19.4513 16.0949 17.9927 17.5515C16.534 19.0081 15.8047 20.9146 15.8047 23.2709C15.8047 25.6272 16.534 27.5337 17.9927 28.9903C19.4513 30.4041 21.3429 31.111 23.6676 31.111Z" fill="white"/>
<path d="M23.6676 31.111C25.0351 31.111 26.243 30.854 27.2914 30.3399C28.3398 29.8257 29.2286 29.1189 29.958 28.2192L37.0004 34.517C35.405 36.1878 33.4678 37.4945 31.1887 38.437C28.9552 39.3795 26.4481 39.8508 23.6676 39.8508C21.115 39.8508 18.7675 39.4438 16.6252 38.6298C14.4828 37.8158 12.614 36.6805 11.0186 35.2239C9.46879 33.7244 8.23808 31.9679 7.32643 29.9543C6.46037 27.8979 6.02734 25.6701 6.02734 23.2709C6.02734 20.8717 6.46037 18.6654 7.32643 16.6518C8.23808 14.5954 9.46879 12.8389 11.0186 11.3822C12.614 9.88275 14.4828 8.72601 16.6252 7.91201C18.7675 7.09801 21.115 6.69101 23.6676 6.69101C26.4026 6.69101 28.8868 7.16227 31.1203 8.1048C33.3538 9.00448 35.2683 10.2683 36.8637 11.8963L29.8896 18.2584C29.2059 17.3587 28.317 16.6518 27.223 16.1377C26.1746 15.6236 24.9895 15.3665 23.6676 15.3665C21.3429 15.3665 19.4513 16.0949 17.9927 17.5515C16.534 19.0081 15.8047 20.9146 15.8047 23.2709C15.8047 25.6272 16.534 27.5337 17.9927 28.9903C19.4513 30.4041 21.3429 31.111 23.6676 31.111Z" fill="white"/>
<path d="M23.6676 31.111C25.0351 31.111 26.243 30.854 27.2914 30.3399C28.3398 29.8257 29.2286 29.1189 29.958 28.2192L37.0004 34.517C35.405 36.1878 33.4678 37.4945 31.1887 38.437C28.9552 39.3795 26.4481 39.8508 23.6676 39.8508C21.115 39.8508 18.7675 39.4438 16.6252 38.6298C14.4828 37.8158 12.614 36.6805 11.0186 35.2239C9.46879 33.7244 8.23808 31.9679 7.32643 29.9543C6.46037 27.8979 6.02734 25.6701 6.02734 23.2709C6.02734 20.8717 6.46037 18.6654 7.32643 16.6518C8.23808 14.5954 9.46879 12.8389 11.0186 11.3822C12.614 9.88275 14.4828 8.72601 16.6252 7.91201C18.7675 7.09801 21.115 6.69101 23.6676 6.69101C26.4026 6.69101 28.8868 7.16227 31.1203 8.1048C33.3538 9.00448 35.2683 10.2683 36.8637 11.8963L29.8896 18.2584C29.2059 17.3587 28.317 16.6518 27.223 16.1377C26.1746 15.6236 24.9895 15.3665 23.6676 15.3665C21.3429 15.3665 19.4513 16.0949 17.9927 17.5515C16.534 19.0081 15.8047 20.9146 15.8047 23.2709C15.8047 25.6272 16.534 27.5337 17.9927 28.9903C19.4513 30.4041 21.3429 31.111 23.6676 31.111Z" fill="white"/>
</svg>
