<svg width="157" height="33" viewBox="0 0 157 33" fill="none" xmlns="http://www.w3.org/2000/svg">
<path d="M15.7543 1.02324C15.9348 1.02199 16.0801 0.874665 16.0788 0.694177C16.0776 0.513689 15.9303 0.368386 15.7498 0.369635L15.7543 1.02324ZM9.04069 2.2751L9.18437 2.56863L9.04069 2.2751ZM22.8334 30.3311C22.9955 30.2516 23.0624 30.0558 22.9829 29.8938C22.9034 29.7317 22.7076 29.6648 22.5456 29.7443L22.8334 30.3311ZM12.0749 1.58734L11.748 1.58733L12.0749 1.58734ZM10.8991 2.76117L10.8991 3.08799L10.8991 2.76117ZM9.72334 1.58737L9.39652 1.58736L9.72334 1.58737ZM10.8991 0.413527L10.8991 0.0867159L10.8991 0.413527ZM12.0032 1.18295L11.6965 1.2957L12.0032 1.18295ZM8.89701 1.98157C6.76306 3.0261 4.89227 4.53737 3.42375 6.40308L3.93735 6.80735C5.34511 5.01884 7.13854 3.57003 9.18437 2.56863L8.89701 1.98157ZM3.42375 6.40308C1.95522 8.2688 0.926713 10.441 0.414712 12.7582L1.05294 12.8992C1.54372 10.6781 2.5296 8.59585 3.93735 6.80735L3.42375 6.40308ZM0.414712 12.7582C-0.0972899 15.0754 -0.0796125 17.478 0.46643 19.7874L1.10251 19.637C0.579108 17.4233 0.562164 15.1203 1.05294 12.8992L0.414712 12.7582ZM0.46643 19.7874C1.01247 22.0968 2.07283 24.2536 3.56865 26.0976L4.07625 25.6858C2.64234 23.9182 1.62592 21.8507 1.10251 19.637L0.46643 19.7874ZM3.56865 26.0976C5.06447 27.9415 6.95729 29.4251 9.10638 30.4381L9.38507 29.8469C7.32473 28.8757 5.51017 27.4534 4.07625 25.6858L3.56865 26.0976ZM9.10638 30.4381C11.2555 31.4511 13.6056 31.9675 15.9821 31.949L15.977 31.2954C13.6986 31.3132 11.4454 30.818 9.38507 29.8469L9.10638 30.4381ZM15.9821 31.949C18.3586 31.9305 20.7004 31.3775 22.8334 30.3311L22.5456 29.7443C20.5006 30.7475 18.2555 31.2777 15.977 31.2954L15.9821 31.949ZM11.748 1.58733C11.748 2.05462 11.3684 2.43436 10.8991 2.43436L10.8991 3.08799C11.7284 3.08798 12.4017 2.41662 12.4017 1.58734L11.748 1.58733ZM10.0501 1.58737C10.0502 1.12008 10.4297 0.740345 10.8991 0.740338L10.8991 0.0867159C10.0698 0.0867258 9.39653 0.758081 9.39652 1.58736L10.0501 1.58737ZM15.7498 0.369635C14.4543 0.378598 13.1689 0.546398 11.922 0.866403L12.0845 1.49951C13.2799 1.19271 14.5122 1.03183 15.7543 1.02324L15.7498 0.369635ZM10.8991 0.740338C11.265 0.740334 11.5773 0.971369 11.6965 1.2957L12.31 1.07021C12.0991 0.496448 11.5472 0.0867085 10.8991 0.0867159L10.8991 0.740338ZM11.6965 1.2957C11.7297 1.3862 11.748 1.48427 11.748 1.58733L12.4017 1.58734C12.4017 1.40619 12.3694 1.23185 12.31 1.07021L11.6965 1.2957ZM9.64862 1.63769C9.39546 1.74561 9.14483 1.86026 8.89701 1.98157L9.18437 2.56863C9.42196 2.45234 9.66224 2.34242 9.90495 2.23895L9.64862 1.63769ZM10.8991 2.43436C10.5188 2.43437 10.1965 2.18474 10.0886 1.84058L9.46493 2.03606C9.65597 2.6456 10.2256 3.08799 10.8991 3.08799L10.8991 2.43436ZM10.0886 1.84058C10.0637 1.76103 10.0501 1.67609 10.0501 1.58737L9.39652 1.58736C9.39652 1.74315 9.4204 1.89398 9.46493 2.03606L10.0886 1.84058Z" fill="white"/>
<path d="M16.428 21.819C17.4033 21.819 18.2648 21.6355 19.0125 21.2687C19.7603 20.9019 20.3942 20.3975 20.9144 19.7555L25.9371 24.2493C24.7993 25.4415 23.4176 26.3739 21.7921 27.0464C20.1992 27.719 18.4111 28.0552 16.428 28.0552C14.6075 28.0552 12.9332 27.7648 11.4052 27.184C9.87726 26.6032 8.54436 25.7931 7.40651 24.7537C6.30118 23.6837 5.42341 22.4304 4.77321 20.9936C4.15552 19.5262 3.84668 17.9366 3.84668 16.2247C3.84668 14.5128 4.15552 12.9384 4.77321 11.5016C5.42341 10.0343 6.30118 8.7809 7.40651 7.74152C8.54436 6.67158 9.87726 5.84619 11.4052 5.26536C12.9332 4.68453 14.6075 4.39412 16.428 4.39412C18.3786 4.39412 20.1504 4.73039 21.7434 5.40293C23.3364 6.04489 24.7018 6.94671 25.8396 8.10836L20.8656 12.648C20.378 12.006 19.744 11.5016 18.9638 11.1348C18.216 10.7679 17.3708 10.5845 16.428 10.5845C14.77 10.5845 13.4208 11.1042 12.3805 12.1436C11.3402 13.183 10.82 14.5433 10.82 16.2247C10.82 17.906 11.3402 19.2664 12.3805 20.3058C13.4208 21.3146 14.77 21.819 16.428 21.819Z" fill="white"/>
<path d="M39.1811 21.8648C40.7714 21.8648 42.0655 21.3451 43.0633 20.3058C44.0923 19.2664 44.6068 17.906 44.6068 16.2247C44.6068 14.5433 44.0923 13.1983 43.0633 12.1894C42.0655 11.1501 40.7714 10.6304 39.1811 10.6304C37.5908 10.6304 36.2967 11.1501 35.2989 12.1894C34.3011 13.1983 33.8022 14.5433 33.8022 16.2247C33.8022 17.906 34.3011 19.2664 35.2989 20.3058C36.2967 21.3451 37.5908 21.8648 39.1811 21.8648ZM39.1811 4.39412C40.9273 4.39412 42.5332 4.68453 43.9988 5.26536C45.4955 5.84619 46.774 6.67158 47.8342 7.74152C48.9256 8.7809 49.7675 10.0343 50.36 11.5016C50.9836 12.9384 51.2954 14.5128 51.2954 16.2247C51.2954 17.9366 50.9836 19.5262 50.36 20.9936C49.7675 22.4304 48.9256 23.6837 47.8342 24.7537C46.774 25.7931 45.4955 26.6032 43.9988 27.184C42.5332 27.7648 40.9273 28.0552 39.1811 28.0552C37.4349 28.0552 35.829 27.7648 34.3634 27.184C32.8979 26.6032 31.6194 25.7931 30.528 24.7537C29.4678 23.6837 28.6259 22.4304 28.0023 20.9936C27.4098 19.5262 27.1136 17.9366 27.1136 16.2247C27.1136 14.5128 27.4098 12.9384 28.0023 11.5016C28.6259 10.0343 29.4678 8.7809 30.528 7.74152C31.6194 6.67158 32.8979 5.84619 34.3634 5.26536C35.829 4.68453 37.4349 4.39412 39.1811 4.39412Z" fill="white"/>
<path d="M63.4455 22.6902C64.591 22.6902 65.4183 22.5526 65.9275 22.2775C66.4366 21.9718 66.6912 21.5897 66.6912 21.1311C66.6912 20.6115 66.3729 20.1682 65.7365 19.8014C65.1001 19.4039 63.9387 19.0371 62.2522 18.7008C59.643 18.1812 57.6383 17.2946 56.2382 16.0413C54.8699 14.7879 54.1858 13.183 54.1858 11.2265C54.1858 10.2788 54.3926 9.3923 54.8063 8.56691C55.2199 7.74152 55.8245 7.02313 56.62 6.41173C57.4155 5.76976 58.402 5.28065 59.5793 4.94438C60.7567 4.57754 62.0931 4.39412 63.5887 4.39412C65.4661 4.39412 67.2321 4.62339 68.8867 5.08194C70.5732 5.54049 72.0688 6.1366 73.3734 6.87028L69.7936 11.7309C68.9663 11.1806 68.0117 10.7221 66.9298 10.3553C65.8797 9.98841 64.7978 9.80499 63.6841 9.80499C62.7932 9.80499 62.1249 9.94256 61.6795 10.2177C61.234 10.4622 61.0112 10.7985 61.0112 11.2265C61.0112 11.6545 61.2658 12.0366 61.7749 12.3729C62.284 12.6786 63.2705 12.9995 64.7342 13.3358C66.3889 13.7027 67.773 14.1459 68.8867 14.6656C70.0323 15.1547 70.9392 15.7203 71.6074 16.3622C72.3074 16.9736 72.8007 17.6615 73.087 18.4257C73.3734 19.19 73.5166 20.0306 73.5166 20.9477C73.5166 23.0571 72.6256 24.769 70.8437 26.0835C69.0936 27.398 66.6434 28.0552 63.4932 28.0552C62.6022 28.0552 61.6795 27.9788 60.7248 27.826C59.8021 27.7037 58.8952 27.5203 58.0042 27.2757C57.1451 27.0006 56.3177 26.6949 55.5222 26.3586C54.7585 26.0223 54.0903 25.6402 53.5175 25.2122L57.0973 20.3516C57.8928 21.0242 58.8475 21.5897 59.9612 22.0482C61.0749 22.4762 62.2363 22.6902 63.4455 22.6902Z" fill="white"/>
<path d="M111.631 9.63627C111.289 8.62068 110.822 7.74589 110.231 7.01191C108.858 5.26672 106.86 4.39412 104.238 4.39412C102.647 4.39412 101.226 4.74622 99.9779 5.45042C98.7293 6.124 97.6993 7.07314 96.8877 8.29784H96.7941C95.4519 5.69536 93.189 4.39412 90.0052 4.39412C88.5694 4.39412 87.2896 4.66968 86.166 5.22079C85.0423 5.7719 84.0747 6.55265 83.2631 7.56302H83.1695L82.9822 4.94524H77.1766V27.5409H83.8718V15.0949C83.8718 13.7171 84.1995 12.6149 84.855 11.7882C85.5105 10.9616 86.4469 10.5482 87.6642 10.5482C88.8503 10.5482 89.7711 10.9462 90.4266 11.7423C91.0821 12.5077 91.4098 13.6253 91.4098 15.0949V27.5409H98.1051V15.0949C98.1051 13.7171 98.4172 12.6149 99.0415 11.7882C99.6969 10.9616 100.649 10.5482 101.897 10.5482C103.084 10.5482 104.004 10.9462 104.66 11.7423C105.315 12.5077 105.643 13.6253 105.643 15.0949V27.5409H112.338V24.0268C111.941 23.412 111.587 22.7637 111.274 22.0819C110.502 20.2727 110.116 18.3128 110.116 16.2021C110.116 14.0914 110.502 12.1504 111.274 10.3789C111.387 10.1262 111.506 9.87866 111.631 9.63627Z" fill="white"/>
<path d="M125.713 21.8648C127.303 21.8648 128.597 21.3451 129.595 20.3058C130.624 19.2664 131.139 17.906 131.139 16.2247C131.139 14.5433 130.624 13.1983 129.595 12.1895C128.597 11.1501 127.303 10.6304 125.713 10.6304C124.123 10.6304 122.829 11.1501 121.831 12.1895C120.833 13.1983 120.334 14.5433 120.334 16.2247C120.334 17.906 120.833 19.2664 121.831 20.3058C122.829 21.3451 124.123 21.8648 125.713 21.8648ZM125.713 4.39412C127.459 4.39412 129.065 4.68454 130.531 5.26537C132.027 5.84619 133.306 6.67158 134.366 7.74153C135.457 8.78091 136.299 10.0343 136.892 11.5016C137.515 12.9384 137.827 14.5128 137.827 16.2247C137.827 17.9366 137.515 19.5262 136.892 20.9936C136.299 22.4304 135.457 23.6837 134.366 24.7537C133.306 25.7931 132.027 26.6032 130.531 27.184C129.065 27.7648 127.459 28.0552 125.713 28.0552C123.967 28.0552 122.361 27.7648 120.895 27.184C119.43 26.6032 118.151 25.7931 117.06 24.7537C116 23.6837 115.158 22.4304 114.534 20.9936C113.942 19.5262 113.645 17.9366 113.645 16.2247C113.645 14.5128 113.942 12.9384 114.534 11.5016C115.158 10.0343 116 8.78091 117.06 7.74153C118.151 6.67158 119.43 5.84619 120.895 5.26537C122.361 4.68454 123.967 4.39412 125.713 4.39412Z" fill="white"/>
<path d="M137.813 25.7309C138.188 25.9554 138.595 26.1647 139.033 26.3587C139.824 26.695 140.647 27.0007 141.501 27.2758C142.387 27.5203 143.288 27.7037 144.206 27.826C145.155 27.9789 146.073 28.0553 146.959 28.0553C150.091 28.0553 152.527 27.3981 154.267 26.0836C156.039 24.7692 156.925 23.0573 156.925 20.9481C156.925 20.0311 156.783 19.1904 156.498 18.4262C156.213 17.662 155.723 16.9742 155.027 16.3629C154.362 15.7209 153.46 15.1554 152.321 14.6663C151.214 14.1467 149.838 13.7034 148.193 13.3366C146.737 13.0003 145.756 12.6794 145.25 12.3737C144.744 12.0374 144.491 11.6553 144.491 11.2274C144.491 10.7994 144.712 10.4632 145.155 10.2186C145.598 9.9435 146.263 9.80594 147.148 9.80594C148.256 9.80594 149.332 9.98935 150.376 10.3562C151.451 10.723 152.401 11.1815 153.223 11.7317L156.783 6.87137C155.485 6.13773 153.998 5.54165 152.321 5.08312C150.676 4.62459 148.92 4.39533 147.053 4.39533C145.566 4.39533 144.238 4.57874 143.067 4.94556C141.896 5.28181 140.916 5.77091 140.125 6.41285C139.568 6.84319 139.105 7.32654 138.736 7.8629C139.285 8.6356 139.752 9.47426 140.138 10.3789C140.95 12.1504 141.357 14.0914 141.357 16.2021C141.357 16.5275 141.347 16.8492 141.328 17.1674C142.525 17.8426 143.99 18.354 145.725 18.7013C147.402 19.0376 148.556 19.4044 149.189 19.8018C149.822 20.1686 150.138 20.6119 150.138 21.1315C150.138 21.5901 149.885 21.9722 149.379 22.2778C148.873 22.553 148.05 22.6905 146.911 22.6905C145.709 22.6905 144.554 22.4765 143.447 22.0486C142.405 21.6173 141.504 21.0914 140.742 20.4709C140.575 21.0206 140.373 21.5576 140.138 22.0819C139.551 23.429 138.776 24.6453 137.813 25.7309Z" fill="white"/>
<path d="M16.428 21.819C17.4033 21.819 18.2648 21.6355 19.0125 21.2687C19.7603 20.9019 20.3942 20.3975 20.9144 19.7555L25.9371 24.2493C24.7993 25.4415 23.4176 26.3739 21.7921 27.0464C20.1992 27.719 18.4111 28.0552 16.428 28.0552C14.6075 28.0552 12.9332 27.7648 11.4052 27.184C9.87726 26.6032 8.54436 25.7931 7.40651 24.7537C6.30118 23.6837 5.42341 22.4304 4.77321 20.9936C4.15552 19.5262 3.84668 17.9366 3.84668 16.2247C3.84668 14.5128 4.15552 12.9384 4.77321 11.5016C5.42341 10.0343 6.30118 8.7809 7.40651 7.74152C8.54436 6.67158 9.87726 5.84619 11.4052 5.26536C12.9332 4.68453 14.6075 4.39412 16.428 4.39412C18.3786 4.39412 20.1504 4.73039 21.7434 5.40293C23.3364 6.04489 24.7018 6.94671 25.8396 8.10836L20.8656 12.648C20.378 12.006 19.744 11.5016 18.9638 11.1348C18.216 10.7679 17.3708 10.5845 16.428 10.5845C14.77 10.5845 13.4208 11.1042 12.3805 12.1436C11.3402 13.183 10.82 14.5433 10.82 16.2247C10.82 17.906 11.3402 19.2664 12.3805 20.3058C13.4208 21.3146 14.77 21.819 16.428 21.819Z" fill="white"/>
<path d="M16.428 21.819C17.4033 21.819 18.2648 21.6355 19.0125 21.2687C19.7603 20.9019 20.3942 20.3975 20.9144 19.7555L25.9371 24.2493C24.7993 25.4415 23.4176 26.3739 21.7921 27.0464C20.1992 27.719 18.4111 28.0552 16.428 28.0552C14.6075 28.0552 12.9332 27.7648 11.4052 27.184C9.87726 26.6032 8.54436 25.7931 7.40651 24.7537C6.30118 23.6837 5.42341 22.4304 4.77321 20.9936C4.15552 19.5262 3.84668 17.9366 3.84668 16.2247C3.84668 14.5128 4.15552 12.9384 4.77321 11.5016C5.42341 10.0343 6.30118 8.7809 7.40651 7.74152C8.54436 6.67158 9.87726 5.84619 11.4052 5.26536C12.9332 4.68453 14.6075 4.39412 16.428 4.39412C18.3786 4.39412 20.1504 4.73039 21.7434 5.40293C23.3364 6.04489 24.7018 6.94671 25.8396 8.10836L20.8656 12.648C20.378 12.006 19.744 11.5016 18.9638 11.1348C18.216 10.7679 17.3708 10.5845 16.428 10.5845C14.77 10.5845 13.4208 11.1042 12.3805 12.1436C11.3402 13.183 10.82 14.5433 10.82 16.2247C10.82 17.906 11.3402 19.2664 12.3805 20.3058C13.4208 21.3146 14.77 21.819 16.428 21.819Z" fill="white"/>
</svg>
